<mxfile host="app.diagrams.net" agent="Mozilla/5.0 (Windows NT 10.0; Win64; x64) AppleWebKit/537.36 (KHTML, like Gecko) Chrome/131.0.0.0 Safari/537.36" version="25.0.3">
  <diagram id="C5RBs43oDa-KdzZeNtuy" name="Page-1">
    <mxGraphModel dx="1485" dy="800" grid="1" gridSize="10" guides="1" tooltips="1" connect="1" arrows="1" fold="1" page="1" pageScale="1" pageWidth="827" pageHeight="1169" math="0" shadow="0">
      <root>
        <mxCell id="WIyWlLk6GJQsqaUBKTNV-0" />
        <mxCell id="WIyWlLk6GJQsqaUBKTNV-1" parent="WIyWlLk6GJQsqaUBKTNV-0" />
        <mxCell id="kRzXIzsxaXVKyTrmBKuY-9" value="" style="edgeStyle=orthogonalEdgeStyle;rounded=0;orthogonalLoop=1;jettySize=auto;html=1;" edge="1" parent="WIyWlLk6GJQsqaUBKTNV-1" source="WIyWlLk6GJQsqaUBKTNV-12" target="kRzXIzsxaXVKyTrmBKuY-7">
          <mxGeometry relative="1" as="geometry" />
        </mxCell>
        <mxCell id="WIyWlLk6GJQsqaUBKTNV-12" value="Submit Request" style="rounded=1;whiteSpace=wrap;html=1;fontSize=12;glass=0;strokeWidth=1;shadow=0;fillColor=#f9f7ed;strokeColor=#36393d;" parent="WIyWlLk6GJQsqaUBKTNV-1" vertex="1">
          <mxGeometry x="254" y="630" width="120" height="40" as="geometry" />
        </mxCell>
        <mxCell id="t3oi9hbD-jSYXLZqwvDD-16" value="Make Vacation Request&amp;nbsp; Flow" style="rounded=0;whiteSpace=wrap;html=1;fillColor=#d5e8d4;strokeColor=#82b366;" parent="WIyWlLk6GJQsqaUBKTNV-1" vertex="1">
          <mxGeometry x="310" width="260" height="60" as="geometry" />
        </mxCell>
        <mxCell id="t3oi9hbD-jSYXLZqwvDD-38" value="" style="edgeStyle=orthogonalEdgeStyle;rounded=0;orthogonalLoop=1;jettySize=auto;html=1;" parent="WIyWlLk6GJQsqaUBKTNV-1" source="t3oi9hbD-jSYXLZqwvDD-37" target="t3oi9hbD-jSYXLZqwvDD-42" edge="1">
          <mxGeometry relative="1" as="geometry" />
        </mxCell>
        <mxCell id="t3oi9hbD-jSYXLZqwvDD-39" value="True" style="edgeLabel;html=1;align=center;verticalAlign=middle;resizable=0;points=[];" parent="t3oi9hbD-jSYXLZqwvDD-38" vertex="1" connectable="0">
          <mxGeometry x="-0.4648" y="-1" relative="1" as="geometry">
            <mxPoint x="-28" y="-4" as="offset" />
          </mxGeometry>
        </mxCell>
        <mxCell id="t3oi9hbD-jSYXLZqwvDD-69" style="edgeStyle=orthogonalEdgeStyle;rounded=0;orthogonalLoop=1;jettySize=auto;html=1;entryX=0.5;entryY=1;entryDx=0;entryDy=0;" parent="WIyWlLk6GJQsqaUBKTNV-1" source="t3oi9hbD-jSYXLZqwvDD-37" target="t3oi9hbD-jSYXLZqwvDD-47" edge="1">
          <mxGeometry relative="1" as="geometry" />
        </mxCell>
        <mxCell id="t3oi9hbD-jSYXLZqwvDD-70" value="False" style="edgeLabel;html=1;align=center;verticalAlign=middle;resizable=0;points=[];" parent="t3oi9hbD-jSYXLZqwvDD-69" vertex="1" connectable="0">
          <mxGeometry x="-0.2832" y="-2" relative="1" as="geometry">
            <mxPoint x="27" y="-8" as="offset" />
          </mxGeometry>
        </mxCell>
        <mxCell id="t3oi9hbD-jSYXLZqwvDD-37" value="Authenticate" style="rhombus;whiteSpace=wrap;html=1;shadow=0;fontFamily=Helvetica;fontSize=12;align=center;strokeWidth=1;spacing=6;spacingTop=-4;fillColor=#dae8fc;strokeColor=#6c8ebf;" parent="WIyWlLk6GJQsqaUBKTNV-1" vertex="1">
          <mxGeometry x="264" y="190" width="100" height="80" as="geometry" />
        </mxCell>
        <mxCell id="kRzXIzsxaXVKyTrmBKuY-5" value="" style="edgeStyle=orthogonalEdgeStyle;rounded=0;orthogonalLoop=1;jettySize=auto;html=1;" edge="1" parent="WIyWlLk6GJQsqaUBKTNV-1" source="t3oi9hbD-jSYXLZqwvDD-42" target="kRzXIzsxaXVKyTrmBKuY-1">
          <mxGeometry relative="1" as="geometry" />
        </mxCell>
        <mxCell id="t3oi9hbD-jSYXLZqwvDD-42" value="New Vacation Request" style="rounded=1;whiteSpace=wrap;html=1;fontSize=12;glass=0;strokeWidth=1;shadow=0;fillColor=#f9f7ed;strokeColor=#36393d;" parent="WIyWlLk6GJQsqaUBKTNV-1" vertex="1">
          <mxGeometry x="254" y="310" width="120" height="40" as="geometry" />
        </mxCell>
        <mxCell id="t3oi9hbD-jSYXLZqwvDD-67" style="edgeStyle=orthogonalEdgeStyle;rounded=0;orthogonalLoop=1;jettySize=auto;html=1;" parent="WIyWlLk6GJQsqaUBKTNV-1" source="t3oi9hbD-jSYXLZqwvDD-47" target="t3oi9hbD-jSYXLZqwvDD-37" edge="1">
          <mxGeometry relative="1" as="geometry">
            <Array as="points">
              <mxPoint x="314" y="120" />
            </Array>
          </mxGeometry>
        </mxCell>
        <mxCell id="t3oi9hbD-jSYXLZqwvDD-47" value="Employee&amp;nbsp;&lt;div&gt;Login&lt;/div&gt;" style="ellipse;whiteSpace=wrap;html=1;fillColor=#ffe6cc;strokeColor=#d79b00;" parent="WIyWlLk6GJQsqaUBKTNV-1" vertex="1">
          <mxGeometry x="105" y="100" width="100" height="40" as="geometry" />
        </mxCell>
        <mxCell id="t3oi9hbD-jSYXLZqwvDD-81" style="edgeStyle=orthogonalEdgeStyle;rounded=0;orthogonalLoop=1;jettySize=auto;html=1;entryX=0;entryY=0.5;entryDx=0;entryDy=0;" parent="WIyWlLk6GJQsqaUBKTNV-1" source="t3oi9hbD-jSYXLZqwvDD-57" target="t3oi9hbD-jSYXLZqwvDD-62" edge="1">
          <mxGeometry relative="1" as="geometry">
            <Array as="points">
              <mxPoint x="633.5" y="935" />
              <mxPoint x="633.5" y="640" />
            </Array>
          </mxGeometry>
        </mxCell>
        <mxCell id="t3oi9hbD-jSYXLZqwvDD-57" value="Deduct Vacation&amp;nbsp;&lt;span style=&quot;background-color: initial;&quot;&gt;Balance&lt;/span&gt;" style="rounded=1;whiteSpace=wrap;html=1;fillColor=#f9f7ed;strokeColor=#36393d;" parent="WIyWlLk6GJQsqaUBKTNV-1" vertex="1">
          <mxGeometry x="253" y="910" width="121" height="50" as="geometry" />
        </mxCell>
        <mxCell id="t3oi9hbD-jSYXLZqwvDD-62" value="Notify Employee" style="ellipse;whiteSpace=wrap;html=1;fillColor=#ffe6cc;strokeColor=#d79b00;" parent="WIyWlLk6GJQsqaUBKTNV-1" vertex="1">
          <mxGeometry x="663.5" y="620" width="100" height="40" as="geometry" />
        </mxCell>
        <mxCell id="t3oi9hbD-jSYXLZqwvDD-71" value="Show Input&amp;nbsp;&lt;span style=&quot;background-color: initial;&quot;&gt;Errors&lt;/span&gt;" style="rounded=1;whiteSpace=wrap;html=1;fontSize=12;glass=0;strokeWidth=1;shadow=0;fillColor=#f9f7ed;strokeColor=#36393d;" parent="WIyWlLk6GJQsqaUBKTNV-1" vertex="1">
          <mxGeometry x="450" y="410" width="120" height="40" as="geometry" />
        </mxCell>
        <mxCell id="kRzXIzsxaXVKyTrmBKuY-4" style="edgeStyle=orthogonalEdgeStyle;rounded=0;orthogonalLoop=1;jettySize=auto;html=1;" edge="1" parent="WIyWlLk6GJQsqaUBKTNV-1" source="kRzXIzsxaXVKyTrmBKuY-1" target="t3oi9hbD-jSYXLZqwvDD-71">
          <mxGeometry relative="1" as="geometry" />
        </mxCell>
        <mxCell id="kRzXIzsxaXVKyTrmBKuY-11" value="False" style="edgeLabel;html=1;align=center;verticalAlign=middle;resizable=0;points=[];" vertex="1" connectable="0" parent="kRzXIzsxaXVKyTrmBKuY-4">
          <mxGeometry x="-0.0877" y="-2" relative="1" as="geometry">
            <mxPoint y="-22" as="offset" />
          </mxGeometry>
        </mxCell>
        <mxCell id="kRzXIzsxaXVKyTrmBKuY-14" value="" style="edgeStyle=orthogonalEdgeStyle;rounded=0;orthogonalLoop=1;jettySize=auto;html=1;" edge="1" parent="WIyWlLk6GJQsqaUBKTNV-1" source="kRzXIzsxaXVKyTrmBKuY-1" target="kRzXIzsxaXVKyTrmBKuY-13">
          <mxGeometry relative="1" as="geometry" />
        </mxCell>
        <mxCell id="kRzXIzsxaXVKyTrmBKuY-1" value="Validate&amp;nbsp;&lt;div&gt;Input&lt;/div&gt;" style="rhombus;whiteSpace=wrap;html=1;shadow=0;fontFamily=Helvetica;fontSize=12;align=center;strokeWidth=1;spacing=6;spacingTop=-4;fillColor=#dae8fc;strokeColor=#6c8ebf;" vertex="1" parent="WIyWlLk6GJQsqaUBKTNV-1">
          <mxGeometry x="264.5" y="390" width="100" height="80" as="geometry" />
        </mxCell>
        <mxCell id="kRzXIzsxaXVKyTrmBKuY-22" value="" style="edgeStyle=orthogonalEdgeStyle;rounded=0;orthogonalLoop=1;jettySize=auto;html=1;" edge="1" parent="WIyWlLk6GJQsqaUBKTNV-1" source="kRzXIzsxaXVKyTrmBKuY-6" target="t3oi9hbD-jSYXLZqwvDD-57">
          <mxGeometry relative="1" as="geometry" />
        </mxCell>
        <mxCell id="kRzXIzsxaXVKyTrmBKuY-26" style="edgeStyle=orthogonalEdgeStyle;rounded=0;orthogonalLoop=1;jettySize=auto;html=1;" edge="1" parent="WIyWlLk6GJQsqaUBKTNV-1" source="kRzXIzsxaXVKyTrmBKuY-6" target="kRzXIzsxaXVKyTrmBKuY-25">
          <mxGeometry relative="1" as="geometry" />
        </mxCell>
        <mxCell id="kRzXIzsxaXVKyTrmBKuY-6" value="Manager Approval" style="rhombus;whiteSpace=wrap;html=1;shadow=0;fontFamily=Helvetica;fontSize=12;align=center;strokeWidth=1;spacing=6;spacingTop=-4;fillColor=#dae8fc;strokeColor=#6c8ebf;" vertex="1" parent="WIyWlLk6GJQsqaUBKTNV-1">
          <mxGeometry x="263.5" y="790" width="100" height="80" as="geometry" />
        </mxCell>
        <mxCell id="kRzXIzsxaXVKyTrmBKuY-21" value="" style="edgeStyle=orthogonalEdgeStyle;rounded=0;orthogonalLoop=1;jettySize=auto;html=1;" edge="1" parent="WIyWlLk6GJQsqaUBKTNV-1" source="kRzXIzsxaXVKyTrmBKuY-7" target="kRzXIzsxaXVKyTrmBKuY-6">
          <mxGeometry relative="1" as="geometry" />
        </mxCell>
        <mxCell id="kRzXIzsxaXVKyTrmBKuY-7" value="Notify Manager" style="rounded=1;whiteSpace=wrap;html=1;fillColor=#f9f7ed;strokeColor=#36393d;" vertex="1" parent="WIyWlLk6GJQsqaUBKTNV-1">
          <mxGeometry x="253" y="710" width="121" height="40" as="geometry" />
        </mxCell>
        <mxCell id="kRzXIzsxaXVKyTrmBKuY-12" value="True" style="edgeLabel;html=1;align=center;verticalAlign=middle;resizable=0;points=[];" vertex="1" connectable="0" parent="WIyWlLk6GJQsqaUBKTNV-1">
          <mxGeometry x="293.5" y="370" as="geometry">
            <mxPoint x="-12" y="111" as="offset" />
          </mxGeometry>
        </mxCell>
        <mxCell id="kRzXIzsxaXVKyTrmBKuY-15" style="edgeStyle=orthogonalEdgeStyle;rounded=0;orthogonalLoop=1;jettySize=auto;html=1;entryX=0.5;entryY=0;entryDx=0;entryDy=0;" edge="1" parent="WIyWlLk6GJQsqaUBKTNV-1" source="kRzXIzsxaXVKyTrmBKuY-13" target="WIyWlLk6GJQsqaUBKTNV-12">
          <mxGeometry relative="1" as="geometry" />
        </mxCell>
        <mxCell id="kRzXIzsxaXVKyTrmBKuY-18" value="" style="edgeStyle=orthogonalEdgeStyle;rounded=0;orthogonalLoop=1;jettySize=auto;html=1;" edge="1" parent="WIyWlLk6GJQsqaUBKTNV-1" source="kRzXIzsxaXVKyTrmBKuY-13" target="kRzXIzsxaXVKyTrmBKuY-17">
          <mxGeometry relative="1" as="geometry" />
        </mxCell>
        <mxCell id="kRzXIzsxaXVKyTrmBKuY-13" value="Validate&amp;nbsp;&lt;div&gt;restrictions&lt;/div&gt;" style="rhombus;whiteSpace=wrap;html=1;shadow=0;fontFamily=Helvetica;fontSize=12;align=center;strokeWidth=1;spacing=6;spacingTop=-4;fillColor=#dae8fc;strokeColor=#6c8ebf;" vertex="1" parent="WIyWlLk6GJQsqaUBKTNV-1">
          <mxGeometry x="263.5" y="510" width="100" height="80" as="geometry" />
        </mxCell>
        <mxCell id="kRzXIzsxaXVKyTrmBKuY-16" value="True" style="edgeLabel;html=1;align=center;verticalAlign=middle;resizable=0;points=[];" vertex="1" connectable="0" parent="WIyWlLk6GJQsqaUBKTNV-1">
          <mxGeometry x="293.5" y="495" as="geometry">
            <mxPoint x="-12" y="111" as="offset" />
          </mxGeometry>
        </mxCell>
        <mxCell id="kRzXIzsxaXVKyTrmBKuY-19" style="edgeStyle=orthogonalEdgeStyle;rounded=0;orthogonalLoop=1;jettySize=auto;html=1;entryX=0;entryY=0.5;entryDx=0;entryDy=0;" edge="1" parent="WIyWlLk6GJQsqaUBKTNV-1" source="kRzXIzsxaXVKyTrmBKuY-17" target="t3oi9hbD-jSYXLZqwvDD-62">
          <mxGeometry relative="1" as="geometry">
            <Array as="points">
              <mxPoint x="633.5" y="550" />
              <mxPoint x="633.5" y="640" />
            </Array>
          </mxGeometry>
        </mxCell>
        <mxCell id="kRzXIzsxaXVKyTrmBKuY-17" value="Rejected" style="rounded=1;whiteSpace=wrap;html=1;fontSize=12;glass=0;strokeWidth=1;shadow=0;fillColor=#f9f7ed;strokeColor=#36393d;" vertex="1" parent="WIyWlLk6GJQsqaUBKTNV-1">
          <mxGeometry x="450" y="530" width="120" height="40" as="geometry" />
        </mxCell>
        <mxCell id="kRzXIzsxaXVKyTrmBKuY-20" value="False" style="edgeLabel;html=1;align=center;verticalAlign=middle;resizable=0;points=[];" vertex="1" connectable="0" parent="WIyWlLk6GJQsqaUBKTNV-1">
          <mxGeometry x="414" y="430" as="geometry">
            <mxPoint x="-4" y="98" as="offset" />
          </mxGeometry>
        </mxCell>
        <mxCell id="kRzXIzsxaXVKyTrmBKuY-27" style="edgeStyle=orthogonalEdgeStyle;rounded=0;orthogonalLoop=1;jettySize=auto;html=1;entryX=0;entryY=0.5;entryDx=0;entryDy=0;" edge="1" parent="WIyWlLk6GJQsqaUBKTNV-1" source="kRzXIzsxaXVKyTrmBKuY-25" target="t3oi9hbD-jSYXLZqwvDD-62">
          <mxGeometry relative="1" as="geometry">
            <Array as="points">
              <mxPoint x="593.5" y="830" />
              <mxPoint x="593.5" y="640" />
            </Array>
          </mxGeometry>
        </mxCell>
        <mxCell id="kRzXIzsxaXVKyTrmBKuY-25" value="Rejected" style="rounded=1;whiteSpace=wrap;html=1;fontSize=12;glass=0;strokeWidth=1;shadow=0;fillColor=#f9f7ed;strokeColor=#36393d;" vertex="1" parent="WIyWlLk6GJQsqaUBKTNV-1">
          <mxGeometry x="450" y="810" width="120" height="40" as="geometry" />
        </mxCell>
        <mxCell id="kRzXIzsxaXVKyTrmBKuY-30" value="-Balance Restrictions&lt;div&gt;-Location Restrictions&lt;/div&gt;&lt;div&gt;-HR Custom Restrictions&lt;/div&gt;" style="shape=note;whiteSpace=wrap;html=1;backgroundOutline=1;darkOpacity=0.05;align=left;fillColor=#f5f5f5;fontColor=#333333;strokeColor=#666666;" vertex="1" parent="WIyWlLk6GJQsqaUBKTNV-1">
          <mxGeometry x="63" y="500" width="190" height="80" as="geometry" />
        </mxCell>
        <mxCell id="kRzXIzsxaXVKyTrmBKuY-31" style="edgeStyle=orthogonalEdgeStyle;rounded=0;orthogonalLoop=1;jettySize=auto;html=1;entryX=1.001;entryY=0.408;entryDx=0;entryDy=0;entryPerimeter=0;" edge="1" parent="WIyWlLk6GJQsqaUBKTNV-1" source="t3oi9hbD-jSYXLZqwvDD-71" target="t3oi9hbD-jSYXLZqwvDD-42">
          <mxGeometry relative="1" as="geometry">
            <Array as="points">
              <mxPoint x="510" y="326" />
            </Array>
          </mxGeometry>
        </mxCell>
        <mxCell id="kRzXIzsxaXVKyTrmBKuY-32" value="False" style="edgeLabel;html=1;align=center;verticalAlign=middle;resizable=0;points=[];" vertex="1" connectable="0" parent="WIyWlLk6GJQsqaUBKTNV-1">
          <mxGeometry x="420" y="710" as="geometry">
            <mxPoint x="-4" y="98" as="offset" />
          </mxGeometry>
        </mxCell>
        <mxCell id="kRzXIzsxaXVKyTrmBKuY-33" value="True" style="edgeLabel;html=1;align=center;verticalAlign=middle;resizable=0;points=[];" vertex="1" connectable="0" parent="WIyWlLk6GJQsqaUBKTNV-1">
          <mxGeometry x="293.5" y="770" as="geometry">
            <mxPoint x="-12" y="111" as="offset" />
          </mxGeometry>
        </mxCell>
      </root>
    </mxGraphModel>
  </diagram>
</mxfile>
